<?xml version="1.0" encoding="iso-8859-1"?>
<!-- Generator: Adobe Illustrator 18.0.0, SVG Export Plug-In . SVG Version: 6.00 Build 0)  -->
<!DOCTYPE svg PUBLIC "-//W3C//DTD SVG 1.1//EN" "http://www.w3.org/Graphics/SVG/1.1/DTD/svg11.dtd">
<svg version="1.1" xmlns="http://www.w3.org/2000/svg" xmlns:xlink="http://www.w3.org/1999/xlink" x="0px" y="0px" width="2800px"
	 height="2800px" viewBox="0 0 2800 2800" enable-background="new 0 0 2800 2800" xml:space="preserve">
<g id="BACKGROUND">
	<g>
		<linearGradient id="SVGID_1_" gradientUnits="userSpaceOnUse" x1="-1.257104e-07" y1="1.257094e-07" x2="2800" y2="2800">
			<stop  offset="0" style="stop-color:#C800FF"/>
			<stop  offset="1" style="stop-color:#0000FF"/>
		</linearGradient>
		<rect fill="url(#SVGID_1_)" width="2800" height="2800"/>
	</g>
</g>
<g id="OBJECTS">
	<path opacity="0.1" d="M920.5,462.5c-32,0-57.9,25.9-57.9,57.9v234.8c0,6.6-5.4,12-12,12h0c-6.6,0-12-5.4-12-12V395
		c0-32-25.9-57.9-57.9-57.9c-32,0-57.9,25.9-57.9,57.9v322.6c0,6.6-5.4,12-12,12c-6.6,0-12-5.4-12-12V327.8
		c0-32-25.9-57.9-57.9-57.9h0c-32,0-57.9,25.9-57.9,57.9v389.7c0,6.6-5.4,12-12,12c-6.6,0-12-5.4-12-12V396.4
		c0-31.4-24.4-58.2-55.8-59.3c-33-1.2-60,25.2-60,57.9v564.9c-9.5-5.8-19.5-10.7-30-14.7V766.8c0-35.6-28.9-64.5-64.5-64.5h0
		c-35.6,0-64.5,28.9-64.5,64.5v276.4v0c0,110.6,65,206,158.9,250.1v0v26.1v961h-84.9h-54.9v228h54.9v48.8V2800h84.9h395.4h84.9
		v-242.7v-48.8h54.9v-228h-54.9h-84.9v-961v-36c83.5-47.5,139.8-137.3,139.8-240.2v0V520.4C978.4,488.4,952.5,462.5,920.5,462.5z"/>
	<g>
		<g>
			<linearGradient id="SVGID_2_" gradientUnits="userSpaceOnUse" x1="-127.6491" y1="836.1413" x2="1310.9806" y2="2274.771">
				<stop  offset="0" style="stop-color:#FFDFB4"/>
				<stop  offset="1" style="stop-color:#F69275"/>
			</linearGradient>
			<path fill="url(#SVGID_2_)" d="M867.6,409.6c-32,0-57.9,25.9-57.9,57.9v234.8c0,6.6-5.4,12-12,12h0c-6.6,0-12-5.4-12-12V342.1
				c0-32-25.9-57.9-57.9-57.9s-57.9,25.9-57.9,57.9v322.6c0,6.6-5.4,12-12,12c-6.6,0-12-5.4-12-12V274.9c0-32-25.9-57.9-57.9-57.9h0
				c-32,0-57.9,25.9-57.9,57.9v389.7c0,6.6-5.4,12-12,12c-6.6,0-12-5.4-12-12V343.5c0-31.4-24.4-58.2-55.8-59.3
				c-33-1.2-60,25.2-60,57.9V907c-9.5-5.8-19.5-10.7-30-14.7V713.9c0-35.6-28.9-64.5-64.5-64.5h0c-35.6,0-64.5,28.9-64.5,64.5v276.4
				v0c0,110.6,65,206,158.9,250.1V2800h395.4V1230.5c83.5-47.5,139.8-137.3,139.8-240.2v0V467.5
				C925.5,435.5,899.6,409.6,867.6,409.6z"/>
			<g opacity="0.1">
				<path d="M390.4,1266.5h117.3c-41.9,0-81.7-9.4-117.3-26.1V1266.5z"/>
				<path d="M649.3,1266.5h136.4v-36C745.5,1253.4,699,1266.5,649.3,1266.5z"/>
			</g>
			<path opacity="0.1" d="M390,907c131.3,21.3,232.8,104.4,241,262c0,0,26-239.9-241-295.4V907z"/>
		</g>
		<linearGradient id="SVGID_3_" gradientUnits="userSpaceOnUse" x1="303.6766" y1="2229.3804" x2="872.4583" y2="2798.1619">
			<stop  offset="0" style="stop-color:#FFFFFF"/>
			<stop  offset="0.2498" style="stop-color:#D6E3F0"/>
			<stop  offset="1" style="stop-color:#5E93C4"/>
		</linearGradient>
		<rect x="305.5" y="2227.5" fill="url(#SVGID_3_)" width="565.1" height="572.5"/>
		<rect x="305.5" y="2227.5" opacity="0.2" width="565.1" height="276.9"/>
		<linearGradient id="SVGID_4_" gradientUnits="userSpaceOnUse" x1="362.3321" y1="2115.8291" x2="813.8028" y2="2567.2998">
			<stop  offset="0" style="stop-color:#FFFFFF"/>
			<stop  offset="0.2498" style="stop-color:#D6E3F0"/>
			<stop  offset="1" style="stop-color:#5E93C4"/>
		</linearGradient>
		<rect x="250.6" y="2227.5" fill="url(#SVGID_4_)" width="674.9" height="228"/>
	</g>
	<g>
		<path opacity="0.6" fill="#FFFFFF" d="M2430.6,326.1h-12.3c-33.8,0-63.8-21.6-74.5-53.7l-0.3-0.8c-10.9-32.6-41.3-54.5-75.7-54.5
			h-258.4c-34.3,0-64.8,22-75.7,54.5l0,0c-10.9,32.6-41.3,54.5-75.7,54.5h-11.5c-76.2,0-137.9,61.8-137.9,137.9v896.6
			c0,76.2,61.8,137.9,137.9,137.9h87.4v49.9c0,22.6,18.3,40.9,40.9,40.9h0c22.6,0,40.9-18.3,40.9-40.9v-49.9h81.8v428.6l0,0
			c0,61.9-50.2,112-112,112h-583.1v0c-61.9,0-112-50.2-112-112h0v-379.6c0-107.1-86.8-193.9-193.9-193.9v0l-355.7,0
			c-107.1,0-193.9,86.8-193.9,193.9h0v206.2H629v-206.2h0c0-61.9,50.2-112,112-112h355.7v0c61.9,0,112,50.2,112,112h0v379.6
			c0,107.1,86.8,193.9,193.9,193.9l0,0h583.1v0c107.1,0,193.9-86.8,193.9-193.9l0,0v-428.6h81.8v49.9c0,22.6,18.3,40.9,40.9,40.9
			l0,0c22.6,0,40.9-18.3,40.9-40.9v-49.9h87.4c76.2,0,137.9-61.8,137.9-137.9V464C2568.5,387.8,2506.8,326.1,2430.6,326.1z
			 M2233.4,299.9c0,14.4-11.7,26.1-26.1,26.1H2070c-14.4,0-26.1-11.7-26.1-26.1v0c0-14.4,11.7-26.1,26.1-26.1h137.2
			C2221.7,273.8,2233.4,285.5,2233.4,299.9L2233.4,299.9z"/>
		<path opacity="0.6" fill="#FFFFFF" d="M1846.7,1464c-57,0-103.5-46.4-103.5-103.5V464c0-57,46.4-103.5,103.5-103.5h583.9
			c57,0,103.5,46.4,103.5,103.5v896.6c0,57-46.4,103.5-103.5,103.5H1846.7z"/>
		<linearGradient id="SVGID_5_" gradientUnits="userSpaceOnUse" x1="1197.5016" y1="848.7444" x2="2251.9402" y2="1903.1831">
			<stop  offset="0" style="stop-color:#E60C0C"/>
			<stop  offset="1" style="stop-color:#2E0200"/>
		</linearGradient>
		<path fill="url(#SVGID_5_)" d="M1743.2,652.5v708.1c0,57.1,46.3,103.5,103.5,103.5h88c12.1,0,21.8,9.8,21.8,21.8v44.8
			c0,10.2,8.2,18.4,18.4,18.4c10.2,0,18.4-8.2,18.4-18.4v-44.8c0-12.1,9.8-21.8,21.8-21.8h83.2c12.1,0,21.8,9.8,21.8,21.8v441.3
			c0,74.3-60.2,134.5-134.5,134.5h-583.1v0c-74.3,0-134.5-60.2-134.5-134.5v-379.6h0c0-94.6-76.7-171.3-171.3-171.3H741
			c-94.6,0-171.3,76.7-171.3,171.3v206.2h36.8v-206.2c0-74.3,60.2-134.5,134.5-134.5h355.7c74.3,0,134.5,60.2,134.5,134.5h0v379.6
			c0,94.6,76.7,171.3,171.3,171.3v0l583.1,0c94.6,0,171.3-76.7,171.3-171.3v-441.3c0-12.1,9.8-21.8,21.8-21.8h83.2
			c12.1,0,21.8,9.8,21.8,21.8v44.8c0,10.2,8.2,18.4,18.4,18.4s18.4-8.2,18.4-18.4v-44.8c0-12.1,9.8-21.8,21.8-21.8h88
			c57.1,0,103.5-46.3,103.5-103.5V652.5H1743.2z"/>
		<path opacity="0.1" d="M2138.6,1253.2c-156.4,0-297.1-38-395.4-98.7v206c0,57.1,46.3,103.5,103.5,103.5h88
			c12.1,0,21.8,9.8,21.8,21.8v44.8c0,10.2,8.2,18.4,18.4,18.4c10.2,0,18.4-8.2,18.4-18.4v-44.8c0-12.1,9.8-21.8,21.8-21.8h83.2h80.5
			h83.2c12.1,0,21.8,9.8,21.8,21.8v44.8c0,10.2,8.2,18.4,18.4,18.4s18.4-8.2,18.4-18.4v-44.8c0-12.1,9.8-21.8,21.8-21.8h88
			c57.1,0,103.5-46.3,103.5-103.5v-206C2435.7,1215.2,2295,1253.2,2138.6,1253.2z"/>
		<linearGradient id="SVGID_6_" gradientUnits="userSpaceOnUse" x1="1917.9414" y1="691.6031" x2="2359.3032" y2="1132.9651">
			<stop  offset="0" style="stop-color:#FFFFFF"/>
			<stop  offset="1" style="stop-color:#B3C9D5"/>
		</linearGradient>
		<rect x="1857.9" y="751.7" fill="url(#SVGID_6_)" width="561.5" height="321.3"/>
	</g>
	<linearGradient id="SVGID_7_" gradientUnits="userSpaceOnUse" x1="455.967" y1="1652.8488" x2="720.1678" y2="1917.0494">
		<stop  offset="0" style="stop-color:#FFFFFF"/>
		<stop  offset="1" style="stop-color:#B3C9D5"/>
	</linearGradient>
	<rect x="390.4" y="1718.4" fill="url(#SVGID_7_)" width="395.4" height="133"/>
</g>
<g id="TEXT">
	<text transform="matrix(1 0 0 1 1051.3872 2383.0215)" fill="#FFFFFF" font-family="'Roboto-Black'" font-size="181.7484">BLOOD DONATION</text>
	
		<text transform="matrix(1 0 0 1 1072.0933 2486.3027)" fill="#FFFFFF" font-family="'Roboto-Black'" font-size="82.4833" letter-spacing="32">GIVE BLOOD SAVE LIFE</text>
</g>
</svg>
